<svg width="100%" height="100%" viewBox="0 0 1014 270" fill="none" xmlns="http://www.w3.org/2000/svg" class="fill-color">
<circle cx="135" cy="135" r="135" fill="#B40000"/>
<path d="M67 101C67 82.2223 82.2223 67 101 67H135V169C135 187.778 119.778 203 101 203H67V101Z" fill="white"/>
<path d="M135 67H169C187.778 67 203 82.2223 203 101V101C203 119.778 187.778 135 169 135V135C150.222 135 135 119.778 135 101V67Z" fill="white" fill-opacity="0.5"/>
<path d="M326.967 189.5V107.724H349.615V130.828L346.423 124.14C348.855 118.364 352.757 114.007 358.127 111.068C363.498 108.028 370.034 106.508 377.735 106.508V128.396C376.722 128.295 375.81 128.244 374.999 128.244C374.189 128.143 373.327 128.092 372.415 128.092C365.93 128.092 360.661 129.967 356.607 133.716C352.655 137.364 350.679 143.089 350.679 150.892V189.5H326.967ZM431.676 190.716C422.354 190.716 414.146 188.892 407.052 185.244C400.06 181.596 394.639 176.631 390.788 170.348C386.938 163.964 385.012 156.719 385.012 148.612C385.012 140.404 386.887 133.159 390.636 126.876C394.487 120.492 399.706 115.527 406.292 111.98C412.879 108.332 420.327 106.508 428.636 106.508C436.642 106.508 443.836 108.231 450.22 111.676C456.706 115.02 461.823 119.884 465.572 126.268C469.322 132.551 471.196 140.1 471.196 148.916C471.196 149.828 471.146 150.892 471.044 152.108C470.943 153.223 470.842 154.287 470.74 155.3H404.316V141.468H458.276L449.156 145.572C449.156 141.316 448.295 137.617 446.572 134.476C444.85 131.335 442.468 128.903 439.428 127.18C436.388 125.356 432.842 124.444 428.788 124.444C424.735 124.444 421.138 125.356 417.996 127.18C414.956 128.903 412.575 131.385 410.852 134.628C409.13 137.769 408.268 141.519 408.268 145.876V149.524C408.268 153.983 409.231 157.935 411.156 161.38C413.183 164.724 415.97 167.308 419.516 169.132C423.164 170.855 427.42 171.716 432.284 171.716C436.642 171.716 440.442 171.057 443.684 169.74C447.028 168.423 450.068 166.447 452.804 163.812L465.42 177.492C461.671 181.748 456.959 185.041 451.284 187.372C445.61 189.601 439.074 190.716 431.676 190.716ZM527.567 190.716C518.244 190.716 510.036 188.892 502.943 185.244C495.951 181.596 490.53 176.631 486.679 170.348C482.828 163.964 480.903 156.719 480.903 148.612C480.903 140.404 482.778 133.159 486.527 126.876C490.378 120.492 495.596 115.527 502.183 111.98C508.77 108.332 516.218 106.508 524.527 106.508C532.532 106.508 539.727 108.231 546.111 111.676C552.596 115.02 557.714 119.884 561.463 126.268C565.212 132.551 567.087 140.1 567.087 148.916C567.087 149.828 567.036 150.892 566.935 152.108C566.834 153.223 566.732 154.287 566.631 155.3H500.207V141.468H554.167L545.047 145.572C545.047 141.316 544.186 137.617 542.463 134.476C540.74 131.335 538.359 128.903 535.319 127.18C532.279 125.356 528.732 124.444 524.679 124.444C520.626 124.444 517.028 125.356 513.887 127.18C510.847 128.903 508.466 131.385 506.743 134.628C505.02 137.769 504.159 141.519 504.159 145.876V149.524C504.159 153.983 505.122 157.935 507.047 161.38C509.074 164.724 511.86 167.308 515.407 169.132C519.055 170.855 523.311 171.716 528.175 171.716C532.532 171.716 536.332 171.057 539.575 169.74C542.919 168.423 545.959 166.447 548.695 163.812L561.311 177.492C557.562 181.748 552.85 185.041 547.175 187.372C541.5 189.601 534.964 190.716 527.567 190.716ZM631.21 190.716C624.319 190.716 618.29 189.196 613.122 186.156C607.954 183.116 603.9 178.505 600.962 172.324C598.124 166.041 596.706 158.137 596.706 148.612C596.706 138.985 598.074 131.081 600.81 124.9C603.546 118.719 607.498 114.108 612.666 111.068C617.834 108.028 624.015 106.508 631.21 106.508C638.911 106.508 645.802 108.281 651.882 111.828C658.063 115.273 662.927 120.137 666.474 126.42C670.122 132.703 671.946 140.1 671.946 148.612C671.946 157.225 670.122 164.673 666.474 170.956C662.927 177.239 658.063 182.103 651.882 185.548C645.802 188.993 638.911 190.716 631.21 190.716ZM582.874 218.988V107.724H605.522V124.444L605.066 148.764L606.586 172.932V218.988H582.874ZM627.106 171.26C631.058 171.26 634.554 170.348 637.594 168.524C640.735 166.7 643.218 164.116 645.042 160.772C646.967 157.327 647.93 153.273 647.93 148.612C647.93 143.849 646.967 139.796 645.042 136.452C643.218 133.108 640.735 130.524 637.594 128.7C634.554 126.876 631.058 125.964 627.106 125.964C623.154 125.964 619.607 126.876 616.466 128.7C613.324 130.524 610.842 133.108 609.018 136.452C607.194 139.796 606.282 143.849 606.282 148.612C606.282 153.273 607.194 157.327 609.018 160.772C610.842 164.116 613.324 166.7 616.466 168.524C619.607 170.348 623.154 171.26 627.106 171.26ZM726.731 190.716C718.016 190.716 710.264 188.892 703.475 185.244C696.787 181.596 691.467 176.631 687.515 170.348C683.664 163.964 681.739 156.719 681.739 148.612C681.739 140.404 683.664 133.159 687.515 126.876C691.467 120.492 696.787 115.527 703.475 111.98C710.264 108.332 718.016 106.508 726.731 106.508C735.344 106.508 743.046 108.332 749.835 111.98C756.624 115.527 761.944 120.441 765.795 126.724C769.646 133.007 771.571 140.303 771.571 148.612C771.571 156.719 769.646 163.964 765.795 170.348C761.944 176.631 756.624 181.596 749.835 185.244C743.046 188.892 735.344 190.716 726.731 190.716ZM726.731 171.26C730.683 171.26 734.23 170.348 737.371 168.524C740.512 166.7 742.995 164.116 744.819 160.772C746.643 157.327 747.555 153.273 747.555 148.612C747.555 143.849 746.643 139.796 744.819 136.452C742.995 133.108 740.512 130.524 737.371 128.7C734.23 126.876 730.683 125.964 726.731 125.964C722.779 125.964 719.232 126.876 716.091 128.7C712.95 130.524 710.416 133.108 708.491 136.452C706.667 139.796 705.755 143.849 705.755 148.612C705.755 153.273 706.667 157.327 708.491 160.772C710.416 164.116 712.95 166.7 716.091 168.524C719.232 170.348 722.779 171.26 726.731 171.26ZM787.421 189.5V76.716H811.133V189.5H787.421ZM873.723 190.716C864.401 190.716 856.193 188.892 849.099 185.244C842.107 181.596 836.686 176.631 832.835 170.348C828.985 163.964 827.059 156.719 827.059 148.612C827.059 140.404 828.934 133.159 832.683 126.876C836.534 120.492 841.753 115.527 848.339 111.98C854.926 108.332 862.374 106.508 870.683 106.508C878.689 106.508 885.883 108.231 892.267 111.676C898.753 115.02 903.87 119.884 907.619 126.268C911.369 132.551 913.243 140.1 913.243 148.916C913.243 149.828 913.193 150.892 913.091 152.108C912.99 153.223 912.889 154.287 912.787 155.3H846.363V141.468H900.323L891.203 145.572C891.203 141.316 890.342 137.617 888.619 134.476C886.897 131.335 884.515 128.903 881.475 127.18C878.435 125.356 874.889 124.444 870.835 124.444C866.782 124.444 863.185 125.356 860.043 127.18C857.003 128.903 854.622 131.385 852.899 134.628C851.177 137.769 850.315 141.519 850.315 145.876V149.524C850.315 153.983 851.278 157.935 853.203 161.38C855.23 164.724 858.017 167.308 861.563 169.132C865.211 170.855 869.467 171.716 874.331 171.716C878.689 171.716 882.489 171.057 885.731 169.74C889.075 168.423 892.115 166.447 894.851 163.812L907.467 177.492C903.718 181.748 899.006 185.041 893.331 187.372C887.657 189.601 881.121 190.716 873.723 190.716ZM969.614 190.716C960.291 190.716 952.083 188.892 944.99 185.244C937.998 181.596 932.577 176.631 928.726 170.348C924.875 163.964 922.95 156.719 922.95 148.612C922.95 140.404 924.825 133.159 928.574 126.876C932.425 120.492 937.643 115.527 944.23 111.98C950.817 108.332 958.265 106.508 966.574 106.508C974.579 106.508 981.774 108.231 988.158 111.676C994.643 115.02 999.761 119.884 1003.51 126.268C1007.26 132.551 1009.13 140.1 1009.13 148.916C1009.13 149.828 1009.08 150.892 1008.98 152.108C1008.88 153.223 1008.78 154.287 1008.68 155.3H942.254V141.468H996.214L987.094 145.572C987.094 141.316 986.233 137.617 984.51 134.476C982.787 131.335 980.406 128.903 977.366 127.18C974.326 125.356 970.779 124.444 966.726 124.444C962.673 124.444 959.075 125.356 955.934 127.18C952.894 128.903 950.513 131.385 948.79 134.628C947.067 137.769 946.206 141.519 946.206 145.876V149.524C946.206 153.983 947.169 157.935 949.094 161.38C951.121 164.724 953.907 167.308 957.454 169.132C961.102 170.855 965.358 171.716 970.222 171.716C974.579 171.716 978.379 171.057 981.622 169.74C984.966 168.423 988.006 166.447 990.742 163.812L1003.36 177.492C999.609 181.748 994.897 185.041 989.222 187.372C983.547 189.601 977.011 190.716 969.614 190.716Z" fill="#777" /></svg>
